<svg xmlns="http://www.w3.org/2000/svg" version="1.1" xmlns:xlink="http://www.w3.org/1999/xlink" xmlns:svgjs="http://svgjs.com/svgjs" width="1440" height="560" preserveAspectRatio="none" viewBox="0 0 1440 560">
    <g mask="url(&quot;#SvgjsMask1039&quot;)" fill="none">
        <path d="M1103 284L1355 32" stroke-width="10" stroke="url(#SvgjsLinearGradient1040)" stroke-linecap="round" class="BottomLeft"></path>
        <path d="M423 178L690 -89" stroke-width="6" stroke="url(#SvgjsLinearGradient1040)" stroke-linecap="round" class="BottomLeft"></path>
        <path d="M171 358L333 196" stroke-width="6" stroke="url(#SvgjsLinearGradient1041)" stroke-linecap="round" class="TopRight"></path>
        <path d="M251 485L-157 893" stroke-width="8" stroke="url(#SvgjsLinearGradient1041)" stroke-linecap="round" class="TopRight"></path>
        <path d="M449 322L266 505" stroke-width="8" stroke="url(#SvgjsLinearGradient1040)" stroke-linecap="round" class="BottomLeft"></path>
        <path d="M961 217L1291 -113" stroke-width="8" stroke="url(#SvgjsLinearGradient1041)" stroke-linecap="round" class="TopRight"></path>
        <path d="M1116 406L1433 89" stroke-width="10" stroke="url(#SvgjsLinearGradient1040)" stroke-linecap="round" class="BottomLeft"></path>
        <path d="M50 137L-125 312" stroke-width="6" stroke="url(#SvgjsLinearGradient1040)" stroke-linecap="round" class="BottomLeft"></path>
        <path d="M155 137L335 -43" stroke-width="6" stroke="url(#SvgjsLinearGradient1040)" stroke-linecap="round" class="BottomLeft"></path>
        <path d="M604 350L938 16" stroke-width="6" stroke="url(#SvgjsLinearGradient1040)" stroke-linecap="round" class="BottomLeft"></path>
        <path d="M1239 244L1505 -22" stroke-width="10" stroke="url(#SvgjsLinearGradient1041)" stroke-linecap="round" class="TopRight"></path>
        <path d="M90 253L249 94" stroke-width="6" stroke="url(#SvgjsLinearGradient1041)" stroke-linecap="round" class="TopRight"></path>
        <path d="M1401 422L1076 747" stroke-width="8" stroke="url(#SvgjsLinearGradient1041)" stroke-linecap="round" class="TopRight"></path>
        <path d="M852 334L1049 137" stroke-width="6" stroke="url(#SvgjsLinearGradient1041)" stroke-linecap="round" class="TopRight"></path>
        <path d="M484 73L831 -274" stroke-width="8" stroke="url(#SvgjsLinearGradient1041)" stroke-linecap="round" class="TopRight"></path>
        <path d="M1130 171L1488 -187" stroke-width="10" stroke="url(#SvgjsLinearGradient1041)" stroke-linecap="round" class="TopRight"></path>
        <path d="M575 457L793 239" stroke-width="6" stroke="url(#SvgjsLinearGradient1040)" stroke-linecap="round" class="BottomLeft"></path>
        <path d="M185 222L-184 591" stroke-width="8" stroke="url(#SvgjsLinearGradient1041)" stroke-linecap="round" class="TopRight"></path>
        <path d="M1301 189L936 554" stroke-width="6" stroke="url(#SvgjsLinearGradient1040)" stroke-linecap="round" class="BottomLeft"></path>
        <path d="M1438 323L1789 -28" stroke-width="6" stroke="url(#SvgjsLinearGradient1040)" stroke-linecap="round" class="BottomLeft"></path>
        <path d="M386 429L163 652" stroke-width="10" stroke="url(#SvgjsLinearGradient1040)" stroke-linecap="round" class="BottomLeft"></path>
        <path d="M951 140L1175 -84" stroke-width="10" stroke="url(#SvgjsLinearGradient1040)" stroke-linecap="round" class="BottomLeft"></path>
        <path d="M562 49L143 468" stroke-width="8" stroke="url(#SvgjsLinearGradient1040)" stroke-linecap="round" class="BottomLeft"></path>
        <path d="M910 409L1112 207" stroke-width="6" stroke="url(#SvgjsLinearGradient1041)" stroke-linecap="round" class="TopRight"></path>
        <path d="M236 185L-106 527" stroke-width="8" stroke="url(#SvgjsLinearGradient1041)" stroke-linecap="round" class="TopRight"></path>
        <path d="M1276 532L1657 151" stroke-width="8" stroke="url(#SvgjsLinearGradient1041)" stroke-linecap="round" class="TopRight"></path>
        <path d="M1394 1L1576 -181" stroke-width="6" stroke="url(#SvgjsLinearGradient1040)" stroke-linecap="round" class="BottomLeft"></path>
        <path d="M1294 83L1521 -144" stroke-width="6" stroke="url(#SvgjsLinearGradient1040)" stroke-linecap="round" class="BottomLeft"></path>
        <path d="M177 393L-199 769" stroke-width="6" stroke="url(#SvgjsLinearGradient1041)" stroke-linecap="round" class="TopRight"></path>
        <path d="M928 85L1129 -116" stroke-width="10" stroke="url(#SvgjsLinearGradient1041)" stroke-linecap="round" class="TopRight"></path>
        <path d="M640 552L368 824" stroke-width="8" stroke="url(#SvgjsLinearGradient1041)" stroke-linecap="round" class="TopRight"></path>
        <path d="M276 377L564 89" stroke-width="8" stroke="url(#SvgjsLinearGradient1041)" stroke-linecap="round" class="TopRight"></path>
        <path d="M507 518L776 249" stroke-width="8" stroke="url(#SvgjsLinearGradient1040)" stroke-linecap="round" class="BottomLeft"></path>
        <path d="M891 225L733 383" stroke-width="6" stroke="url(#SvgjsLinearGradient1040)" stroke-linecap="round" class="BottomLeft"></path>
        <path d="M9 35L-387 431" stroke-width="6" stroke="url(#SvgjsLinearGradient1041)" stroke-linecap="round" class="TopRight"></path>
        <path d="M457 447L793 111" stroke-width="6" stroke="url(#SvgjsLinearGradient1040)" stroke-linecap="round" class="BottomLeft"></path>
        <path d="M91 78L-297 466" stroke-width="6" stroke="url(#SvgjsLinearGradient1040)" stroke-linecap="round" class="BottomLeft"></path>
        <path d="M644 126L456 314" stroke-width="8" stroke="url(#SvgjsLinearGradient1041)" stroke-linecap="round" class="TopRight"></path>
        <path d="M725 255L379 601" stroke-width="10" stroke="url(#SvgjsLinearGradient1041)" stroke-linecap="round" class="TopRight"></path>
    </g>
    <defs>
        <mask id="SvgjsMask1039">
            <rect width="1440" height="560" fill="#ffffff"></rect>
        </mask>
        <linearGradient x1="100%" y1="0%" x2="0%" y2="100%" id="SvgjsLinearGradient1040">
            <stop stop-color="rgba(94, 235, 116, 0)" offset="0"></stop>
            <stop stop-color="rgba(94, 235, 116, 0.34)" offset="1"></stop>
        </linearGradient>
        <linearGradient x1="0%" y1="100%" x2="100%" y2="0%" id="SvgjsLinearGradient1041">
            <stop stop-color="rgba(94, 235, 116, 0)" offset="0"></stop>
            <stop stop-color="rgba(94, 235, 116, 0.34)" offset="1"></stop>
        </linearGradient>
    </defs>
</svg>